
<svg width="80" height="80" viewBox="0 0 80 80" fill="none" xmlns="http://www.w3.org/2000/svg">
  <circle cx="40" cy="40" r="40" fill="#1E1E9E"/>
  <path d="M16 31.5H30.5V48.5H16V31.5Z" fill="#D4AF37"/>
  <path d="M33.5 31.5H48V48.5H33.5V31.5Z" fill="#D4AF37"/>
  <path d="M51 31.5H65.5V48.5H51V31.5Z" fill="#D4AF37"/>
  <path d="M19.152 55.576C19.6373 55.576 20.072 55.504 20.456 55.36C20.84 55.216 21.1533 55.0187 21.396 54.768C21.6387 54.5173 21.8147 54.2307 21.924 53.908C22.0333 53.5853 22.088 53.248 22.088 52.896C22.088 52.544 22.0333 52.2067 21.924 51.884C21.8147 51.5613 21.6387 51.2747 21.396 51.024C21.1533 50.7733 20.84 50.576 20.456 50.432C20.072 50.288 19.6373 50.216 19.152 50.216H16.644V55.576H19.152ZM19.116 53.628H18.96V52.164H19.116C19.388 52.164 19.5907 52.236 19.724 52.38C19.8573 52.524 19.924 52.7307 19.924 53C19.924 53.2693 19.8573 53.476 19.724 53.62C19.5907 53.7587 19.388 53.828 19.116 53.628ZM25.9699 55.72C26.4552 55.72 26.8739 55.648 27.2259 55.504C27.5832 55.36 27.8752 55.1573 28.1019 54.896C28.3339 54.6347 28.5045 54.3267 28.6139 53.972C28.7232 53.612 28.7779 53.2213 28.7779 52.8C28.7779 52.384 28.7232 52 28.6139 51.648C28.5045 51.2907 28.3339 50.984 28.1019 50.728C27.8752 50.472 27.5832 50.272 27.2259 50.128C26.8739 49.984 26.4552 49.912 25.9699 49.912C25.4845 49.912 25.0605 49.984 24.6979 50.128C24.3405 50.272 24.0432 50.472 23.8059 50.728C23.5739 50.984 23.3979 51.2907 23.2779 51.648C23.1632 52 23.1059 52.384 23.1059 52.8C23.1059 53.2213 23.1632 53.612 23.2779 53.972C23.3979 54.3267 23.5739 54.6347 23.8059 54.896C24.0432 55.1573 24.3405 55.36 24.6979 55.504C25.0605 55.648 25.4845 55.72 25.9699 55.72ZM25.9699 53.676C25.7005 53.676 25.4899 53.5773 25.3379 53.38C25.1859 53.1827 25.1099 52.8 25.1099 52.8C25.1099 52.8 25.1859 52.4173 25.3379 52.22C25.4899 52.0227 25.7005 51.924 25.9699 51.924C26.2392 51.924 26.4499 52.0227 26.6019 52.22C26.7539 52.4173 26.8299 52.8 26.8299 52.8C26.8299 52.8 26.7539 53.1827 26.6019 53.38C26.4499 53.5773 26.2392 53.676 25.9699 53.676ZM32.8078 55.576H34.8798V53.564H36.4798V51.924H34.8798V51.564H36.4798V50.096H32.8078V55.576ZM41.6838 55.576L43.0438 50.096H40.9718L40.4078 53.036H40.3718L39.8078 50.096H37.7358L39.0958 55.576H41.6838Z" fill="white"/>
</svg>
